<mxfile host="app.diagrams.net" modified="2021-02-07T02:06:35.191Z" agent="5.0 (Windows NT 10.0; Win64; x64) AppleWebKit/537.36 (KHTML, like Gecko) Chrome/88.0.4324.150 Safari/537.36 Edg/88.0.705.63" etag="vwy2V_Hbkg16iuB67ULX" version="14.2.9" type="github">
  <diagram id="R2lEEEUBdFMjLlhIrx00" name="Page-1">
    <mxGraphModel dx="865" dy="1614" grid="1" gridSize="10" guides="1" tooltips="1" connect="1" arrows="1" fold="1" page="1" pageScale="1" pageWidth="850" pageHeight="1100" math="0" shadow="0" extFonts="Permanent Marker^https://fonts.googleapis.com/css?family=Permanent+Marker">
      <root>
        <mxCell id="0" />
        <mxCell id="1" parent="0" />
        <mxCell id="YfJlVYn6H77FMzHFW-Z4-1" value="Category" style="swimlane;childLayout=stackLayout;horizontal=1;startSize=30;horizontalStack=0;rounded=0;fontSize=14;fontStyle=0;strokeWidth=2;resizeParent=0;resizeLast=1;shadow=0;dashed=0;align=center;arcSize=5;" vertex="1" parent="1">
          <mxGeometry x="260" y="100" width="110" height="85" as="geometry" />
        </mxCell>
        <mxCell id="YfJlVYn6H77FMzHFW-Z4-2" value="+ Name&#xa;+ Description&#xa;+ Parent" style="align=left;strokeColor=none;fillColor=none;spacingLeft=4;fontSize=12;verticalAlign=top;resizable=0;rotatable=0;part=1;" vertex="1" parent="YfJlVYn6H77FMzHFW-Z4-1">
          <mxGeometry y="30" width="110" height="55" as="geometry" />
        </mxCell>
        <mxCell id="YfJlVYn6H77FMzHFW-Z4-5" value="Product" style="swimlane;childLayout=stackLayout;horizontal=1;startSize=30;horizontalStack=0;rounded=0;fontSize=14;fontStyle=0;strokeWidth=2;resizeParent=0;resizeLast=1;shadow=0;dashed=0;align=center;" vertex="1" parent="1">
          <mxGeometry x="425" y="120" width="130" height="130" as="geometry" />
        </mxCell>
        <mxCell id="YfJlVYn6H77FMzHFW-Z4-6" value="+ Name&#xa;+ Category&#xa;+ Images&#xa;+ Description&#xa;+ Variations&#xa;+ K,V Specifications" style="align=left;strokeColor=none;fillColor=none;spacingLeft=4;fontSize=12;verticalAlign=top;resizable=0;rotatable=0;part=1;" vertex="1" parent="YfJlVYn6H77FMzHFW-Z4-5">
          <mxGeometry y="30" width="130" height="100" as="geometry" />
        </mxCell>
        <mxCell id="YfJlVYn6H77FMzHFW-Z4-7" value="Product Images*" style="swimlane;childLayout=stackLayout;horizontal=1;startSize=30;horizontalStack=0;rounded=0;fontSize=14;fontStyle=0;strokeWidth=2;resizeParent=0;resizeLast=1;shadow=0;dashed=0;align=center;" vertex="1" parent="1">
          <mxGeometry x="440" y="15" width="130" height="85" as="geometry" />
        </mxCell>
        <mxCell id="YfJlVYn6H77FMzHFW-Z4-8" value="+ Image&#xa;+ Order&#xa;+ Variations" style="align=left;strokeColor=none;fillColor=none;spacingLeft=4;fontSize=12;verticalAlign=top;resizable=0;rotatable=0;part=1;" vertex="1" parent="YfJlVYn6H77FMzHFW-Z4-7">
          <mxGeometry y="30" width="130" height="55" as="geometry" />
        </mxCell>
        <mxCell id="YfJlVYn6H77FMzHFW-Z4-10" value="Images" style="swimlane;childLayout=stackLayout;horizontal=1;startSize=30;horizontalStack=0;rounded=0;fontSize=14;fontStyle=0;strokeWidth=2;resizeParent=0;resizeLast=1;shadow=0;dashed=0;align=center;" vertex="1" parent="1">
          <mxGeometry x="610" y="15" width="130" height="55" as="geometry" />
        </mxCell>
        <mxCell id="YfJlVYn6H77FMzHFW-Z4-11" value="+ Image" style="align=left;strokeColor=none;fillColor=none;spacingLeft=4;fontSize=12;verticalAlign=top;resizable=0;rotatable=0;part=1;" vertex="1" parent="YfJlVYn6H77FMzHFW-Z4-10">
          <mxGeometry y="30" width="130" height="25" as="geometry" />
        </mxCell>
        <mxCell id="YfJlVYn6H77FMzHFW-Z4-14" value="Variation" style="swimlane;childLayout=stackLayout;horizontal=1;startSize=30;horizontalStack=0;rounded=0;fontSize=14;fontStyle=0;strokeWidth=2;resizeParent=0;resizeLast=1;shadow=0;dashed=0;align=center;" vertex="1" parent="1">
          <mxGeometry x="265" y="230" width="100" height="90" as="geometry" />
        </mxCell>
        <mxCell id="YfJlVYn6H77FMzHFW-Z4-15" value="+ Name&#xa;+ Type&#xa;+ Price" style="align=left;strokeColor=none;fillColor=none;spacingLeft=4;fontSize=12;verticalAlign=top;resizable=0;rotatable=0;part=1;" vertex="1" parent="YfJlVYn6H77FMzHFW-Z4-14">
          <mxGeometry y="30" width="100" height="60" as="geometry" />
        </mxCell>
        <mxCell id="YfJlVYn6H77FMzHFW-Z4-16" style="edgeStyle=orthogonalEdgeStyle;rounded=0;orthogonalLoop=1;jettySize=auto;html=1;exitX=0.01;exitY=0.312;exitDx=0;exitDy=0;exitPerimeter=0;entryX=-0.003;entryY=0.147;entryDx=0;entryDy=0;entryPerimeter=0;" edge="1" parent="1" source="YfJlVYn6H77FMzHFW-Z4-6" target="YfJlVYn6H77FMzHFW-Z4-1">
          <mxGeometry relative="1" as="geometry">
            <mxPoint x="240" y="110" as="targetPoint" />
            <mxPoint x="425" y="155" as="sourcePoint" />
            <Array as="points">
              <mxPoint x="426" y="80" />
              <mxPoint x="240" y="80" />
              <mxPoint x="240" y="113" />
            </Array>
          </mxGeometry>
        </mxCell>
        <mxCell id="YfJlVYn6H77FMzHFW-Z4-17" style="edgeStyle=orthogonalEdgeStyle;rounded=0;orthogonalLoop=1;jettySize=auto;html=1;exitX=0;exitY=0.5;exitDx=0;exitDy=0;entryX=0;entryY=0.25;entryDx=0;entryDy=0;" edge="1" parent="1" source="YfJlVYn6H77FMzHFW-Z4-6" target="YfJlVYn6H77FMzHFW-Z4-14">
          <mxGeometry relative="1" as="geometry">
            <Array as="points">
              <mxPoint x="425" y="200" />
              <mxPoint x="245" y="200" />
              <mxPoint x="245" y="253" />
            </Array>
          </mxGeometry>
        </mxCell>
        <mxCell id="YfJlVYn6H77FMzHFW-Z4-19" style="edgeStyle=orthogonalEdgeStyle;rounded=0;orthogonalLoop=1;jettySize=auto;html=1;exitX=0;exitY=0.25;exitDx=0;exitDy=0;entryX=0;entryY=0.25;entryDx=0;entryDy=0;" edge="1" parent="1" source="YfJlVYn6H77FMzHFW-Z4-8" target="YfJlVYn6H77FMzHFW-Z4-10">
          <mxGeometry relative="1" as="geometry">
            <Array as="points">
              <mxPoint x="420" y="59" />
              <mxPoint x="420" />
              <mxPoint x="590" />
              <mxPoint x="590" y="29" />
            </Array>
          </mxGeometry>
        </mxCell>
        <mxCell id="YfJlVYn6H77FMzHFW-Z4-21" style="edgeStyle=orthogonalEdgeStyle;rounded=0;orthogonalLoop=1;jettySize=auto;html=1;exitX=0;exitY=0.5;exitDx=0;exitDy=0;entryX=0;entryY=0.25;entryDx=0;entryDy=0;" edge="1" parent="1" source="YfJlVYn6H77FMzHFW-Z4-6" target="YfJlVYn6H77FMzHFW-Z4-7">
          <mxGeometry relative="1" as="geometry" />
        </mxCell>
      </root>
    </mxGraphModel>
  </diagram>
</mxfile>
